Coordinates
version=1
nRows=9
nColumns=36
inDegrees=yes

Units are S.I. units (second, meters, Newtons, ...)
If the header above contains a line with 'inDegrees', this indicates whether rotational values are in degrees (yes) or radians (no).

endheader
time	pelvis_tilt	pelvis_list	pelvis_rotation	pelvis_tx	pelvis_ty	pelvis_tz	hip_flexion_r	hip_adduction_r	hip_rotation_r	knee_angle_r	knee_angle_r_beta	ankle_angle_r	subtalar_angle_r	mtp_angle_r	hip_flexion_l	hip_adduction_l	hip_rotation_l	knee_angle_l	knee_angle_l_beta	ankle_angle_l	subtalar_angle_l	mtp_angle_l	lumbar_extension	lumbar_bending	lumbar_rotation	arm_flex_r	arm_add_r	arm_rot_r	elbow_flex_r	pro_sup_r	arm_flex_l	arm_add_l	arm_rot_l	elbow_flex_l	pro_sup_l
      4.43750000	     -7.44022161	      2.84609600	     -0.23608600	      0.33127040	      0.78913284	     -0.09195295	     62.14025653	    -19.38519401	      5.95685010	     73.46736405	      1.28224740	     23.43475769	     -9.66874387	     -7.49999987	     61.23398216	    -14.01789405	     -5.56566491	     76.62305654	      1.33732462	     17.11620037	    -17.48064640	     -7.49999987	    -39.33502084	      1.71753734	     -1.39722928	     46.82098129	    -31.71065977	     16.31387750	     74.17685143	     84.21338852	     47.61377447	    -27.63170020	     15.90572288	     71.46905743	     68.02409551
      4.44166670	     -7.14876656	      2.94753267	     -0.23134419	      0.33247847	      0.79518692	     -0.09032691	     61.17794466	    -19.26103749	      5.80554241	     72.82182180	      1.27098056	     24.08236987	     -9.09520370	     -7.49999987	     60.14677056	    -14.07949868	     -5.84417653	     75.64216263	      1.32020479	     17.63724486	    -16.45075079	     -7.49999987	    -39.01502803	      1.49667984	     -1.40179051	     46.28792013	    -31.80140840	     16.19505929	     75.76238002	     84.52799719	     47.40921616	    -27.66232239	     16.10082066	     72.87125321	     68.63930670
      4.44583330	     -7.21090723	      2.83573044	     -0.10225686	      0.33533406	      0.79989057	     -0.08129614	     60.30182989	    -18.72727299	      5.36137005	     72.16282685	      1.25947893	     24.51120016	     -9.23747173	     -7.49999987	     59.47375108	    -14.44391776	     -5.74685622	     74.52265947	      1.30066578	     17.29383183	    -16.11892371	     -7.49999987	    -37.90707062	      1.35700598	     -1.37412829	     45.65017058	    -31.35586291	     16.40329663	     76.01249976	     84.64047728	     47.20121514	    -27.44539323	     16.26863125	     73.14580442	     68.75035897
      4.45000000	     -7.03689064	      2.41254461	      0.06476709	      0.33633171	      0.80458960	     -0.07745231	     59.18043758	    -17.96956210	      4.68351885	     71.53641318	      1.24854595	     24.89059693	     -9.75592212	     -7.49999987	     58.75011315	    -15.07933406	     -5.50619080	     73.62833772	      1.28505692	     17.19193477	    -15.19108876	     -7.49999987	    -37.42393821	      1.23538076	     -0.55747190	     43.65193102	    -31.29876947	     13.57700284	     77.97773539	     91.04127330	     47.66933332	    -26.85235453	     16.81299216	     73.70530996	     75.24075984
      4.45416670	     -7.00462552	      2.26831421	      0.22669154	      0.33806286	      0.80643258	     -0.08217092	     58.55802847	    -17.75647142	      4.46148490	     71.17740123	      1.24228000	     25.21155294	    -10.11414742	     -7.49999987	     58.21453039	    -15.18701327	     -5.56164929	     72.81237416	      1.27081567	     17.22658602	    -15.08585562	     -7.49999987	    -36.38408332	      1.24809618	     -0.59021698	     43.21952901	    -30.92550398	     13.82811697	     78.22550384	     91.05181002	     47.51263141	    -26.67194028	     16.99275599	     73.93522880	     75.26269125
      4.45833330	     -6.99590364	      2.02939599	      0.35127921	      0.33949161	      0.81151395	     -0.08174533	     57.72874599	    -17.47602539	      4.20865036	     70.28795203	      1.22675619	     24.83316084	    -11.19745748	     -7.49999987	     57.66175338	    -15.34509891	     -5.56599963	     71.99129582	      1.25648514	     17.44678261	    -14.76151878	     -7.49999987	    -35.51335265	      1.42378412	     -0.63066825	     42.63844654	    -30.66481355	     13.91622563	     79.18604165	     90.44521182	     47.10759396	    -26.89684262	     17.41409103	     74.77509350	     75.00158521
      4.46250000	     -6.93727902	      1.97453384	      0.25055714	      0.33631645	      0.81545315	     -0.08502533	     57.33821567	    -17.37120461	      4.30254753	     69.56319705	      1.21410683	     24.32100837	    -11.68713540	     -7.49999987	     57.13764909	    -15.25364558	     -5.79565338	     71.26022761	      1.24372560	     17.50508112	    -14.96779908	     -7.49999987	    -34.74587876	      1.49127319	     -0.55169765	     42.48884681	    -30.62063355	     14.12587277	     79.85210910	     90.54765275	     46.98055003	    -26.77686967	     17.65660507	     75.51652136	     75.15102878
      4.46666670	     -6.97909588	      1.90247916	      0.07386313	      0.33592793	      0.81652779	     -0.08697710	     57.09070086	    -17.33888508	      4.27554234	     68.90919251	      1.20269229	     24.10717474	    -11.87885413	     -7.49999987	     56.90501089	    -15.13554016	     -5.84294567	     70.84044617	      1.23639903	     17.55612820	    -15.41626170	     -7.49999987	    -33.74695538	      1.55478209	     -0.50088049	     42.57229154	    -30.33239628	     14.20557166	     79.75295123	     89.70184102	     46.92403120	    -26.45711466	     17.73161286	     75.60658924	     74.37085255
      4.47083330	     -7.20683883	      2.03489989	     -0.23118210	      0.33784362	      0.82042975	     -0.09138260	     56.94216461	    -17.52144746	      4.32972951	     67.94563319	      1.18587501	     23.39667120	    -11.89550907	     -7.49999987	     56.60353802	    -14.78916989	     -6.17662421	     70.30518272	      1.22705692	     17.85768322	    -15.62369078	     -7.49999987	    -32.60331014	      1.62143892	     -0.53453085	     42.57149910	    -30.40491066	     14.62312304	     80.21963546	     88.95037099	     46.51580121	    -26.27678179	     18.02042967	     76.04535683	     73.87163246
